<svg width="93" height="49" viewBox="0 0 93 49" fill="none" xmlns="http://www.w3.org/2000/svg">
<path d="M55.8889 0H39.5556C36.5611 0 34.1111 2.45 34.1111 5.44444V27.2222C34.1111 30.2167 36.5611 32.6667 39.5556 32.6667H55.8889C58.8833 32.6667 61.3333 30.2167 61.3333 27.2222V5.44444C61.3333 2.45 58.8833 0 55.8889 0ZM53.1667 24.5H42.2778V8.16667H53.1667V24.5ZM27.2222 21.7778V27.2222C27.2222 30.2167 24.7722 32.6667 21.7778 32.6667H5.44444C2.45 32.6667 0 30.2167 0 27.2222V5.44444C0 2.45 2.45 0 5.44444 0H21.7778C24.7722 0 27.2222 2.45 27.2222 5.44444V10.8889H19.0556V8.16667H8.16667V24.5H19.0556V21.7778H27.2222ZM87.2778 35.3889H76.3889V40.8333H92.7222V49H68.2222V35.3889C68.2222 32.3944 70.6722 29.9444 73.6667 29.9444H84.5556V24.5H68.2222V16.3333H87.2778C90.2722 16.3333 92.7222 18.7833 92.7222 21.7778V29.9444C92.7222 32.9389 90.2722 35.3889 87.2778 35.3889Z" fill="#910000"/>
</svg>
